<?xml version="1.0" encoding="iso-8859-1"?>
<!-- Generator: Adobe Illustrator 18.1.1, SVG Export Plug-In . SVG Version: 6.00 Build 0)  -->
<svg version="1.1" id="Capa_1" xmlns="http://www.w3.org/2000/svg" xmlns:xlink="http://www.w3.org/1999/xlink" x="0px" y="0px"
	 viewBox="0 0 266.547 266.547" style="enable-background:new 0 0 266.547 266.547;" xml:space="preserve">
<g>
	<path style="fill:#018bc8;" d="M221.495,179.095l-38.971-45.53c-4.346-5.08-3.731-12.689,1.376-16.997l41.81-35.316
		c5.102-4.313,11.427-7.321,14.12-6.712c2.692,0.598,8.643-2.801,13.293-7.598l9.377-9.676c4.65-4.797,5.336-12.494,1.528-17.171
		c-3.807-4.688-11.444-5.542-17.051-1.915l-11.27,7.288c-5.613,3.628-10.166,8.615-10.166,11.145c0,2.529-4.134,8.072-9.236,12.39
		l-42.398,35.903c-5.102,4.313-12.76,3.704-17.106-1.376l-12.619-14.74c-4.346-5.08-5.075-13.108-1.991-18.172
		c3.079-5.064,8.316-14.207,8.333-20.891c0.016-8.028-3.737-19.592-19.695-32.618C113.41,2.875,97.86,0.27,87.797,0.629
		c-6.679,0.234-8.42,6.315-4.166,11.471l21.267,25.77c4.253,5.156,4.117,13.402-0.305,18.417l-0.462,0.528
		c-4.417,5.009-12.619,11.901-18.319,15.398l-0.218,0.131c-5.7,3.492-13.908,2.257-18.33-2.752L45.15,44.544
		c-4.422-5.009-10.699-4.248-11.977,2.312c-1.561,7.974-1.773,19.782,4.145,34.255c2.529,6.184,7.974,15.626,12.184,20.815
		c8.137,10.03,16.111,13.619,22.311,14.593c6.598,1.039,16.056-2.578,21.065-4.601c5.015-2.023,12.363,0.288,16.562,5.493
		l12.57,15.583c4.194,5.2,5.047,11.58,1.904,14.239c-3.144,2.665-9.154,0.653-13.424-4.487l-0.577-0.696
		c-4.264-5.14-9.083-9.312-10.753-9.312c-1.67,0-2.894,5.417-2.73,12.102l0.087,3.753c0.163,6.685-4.977,11.117-11.471,9.91
		c-6.5-1.207-15.953,1.251-21.114,5.493L9.35,208.792C4.188,213.035,0,220.16,0,224.707c0,4.553,3.383,12.466,7.56,17.688
		l10.421,13.027c4.177,5.221,11.172,9.905,15.626,10.459c4.455,0.566,12.227-2.453,17.367-6.728l54.679-45.53
		c5.134-4.275,9.513-13.152,9.774-19.831l0.06-1.523c0.261-6.685,5.76-10.916,12.287-9.464l0.577,0.12
		c6.527,1.452,11.814,1.05,11.814-0.897s-2.725-6.821-6.097-10.878c-3.367-4.052-3.579-9.464-0.479-12.086
		c3.1-2.622,9.018-0.533,13.217,4.667l36.42,45.161c4.194,5.2,7.174,11.232,6.918,13.511c-0.152,1.365-0.234,2.747-0.234,4.15
		c0,21.169,17.155,38.318,38.318,38.318s38.318-17.149,38.318-38.318c0-16.605-10.568-30.714-25.346-36.023
		C234.919,188.265,225.841,184.175,221.495,179.095z M228.229,247.225c-11.417,0-20.668-9.257-20.668-20.674
		c0-11.417,9.252-20.674,20.668-20.674c11.422,0,20.674,9.257,20.674,20.674C248.902,237.968,239.651,247.225,228.229,247.225z"/>
</g>
<g>
</g>
<g>
</g>
<g>
</g>
<g>
</g>
<g>
</g>
<g>
</g>
<g>
</g>
<g>
</g>
<g>
</g>
<g>
</g>
<g>
</g>
<g>
</g>
<g>
</g>
<g>
</g>
<g>
</g>
</svg>
