<?xml version="1.0" encoding="iso-8859-1"?>
<!-- Generator: Adobe Illustrator 16.0.0, SVG Export Plug-In . SVG Version: 6.00 Build 0)  -->
<!DOCTYPE svg PUBLIC "-//W3C//DTD SVG 1.1//EN" "http://www.w3.org/Graphics/SVG/1.1/DTD/svg11.dtd">
<svg version="1.1" id="Capa_1" xmlns="http://www.w3.org/2000/svg" xmlns:xlink="http://www.w3.org/1999/xlink" x="0px" y="0px"
	 width="369.496px" height="369.496px" viewBox="0 0 369.496 369.496" style="enable-background:new 0 0 369.496 369.496;"
	 xml:space="preserve">
<g>
	<path style="fill:#018bc8;" d="M130.862,121.338c-24.475-11.483-40.284-36.355-40.284-63.361c0-23.564,11.602-45.056,30.791-57.978v57.983
		c0,2.968,2.409,5.375,5.375,5.375h67.616c2.961,0,5.374-2.407,5.374-5.375V0c19.198,12.922,30.799,34.413,30.794,57.978
		c0,27-15.812,51.877-40.284,63.371c-1.04,0.491-1.88,1.291-2.42,2.262c-0.078,0.018-0.153,0.066-0.231,0.087
		c-0.406,0.107-0.795,0.286-1.191,0.435c-0.372,0.14-0.76,0.247-1.114,0.436c-0.736,0.375-1.435,0.827-2.07,1.365l-41.604,35.134
		c-4.682,3.957-5.268,10.982-1.318,15.665l12.342,14.62c0.029,0.031,0.06,0.073,0.086,0.104h-18.782l0.006-65.242
		C133.952,124.123,132.75,122.225,130.862,121.338z"/>
	<path style="fill:#018bc8;" d="M100.933,283.301c-0.113,0-0.22,0.026-0.327,0.031l-0.03-0.399l0.368-19.497h27.822l26.99,0.357l-0.359,19.497
		L100.933,283.301z"/>
	<path style="fill:#018bc8;" d="M100.576,252.318l0.368-19.5h27.628l27.194,0.361l-0.365,19.502l-54.453,0.005c-0.113,0-0.225,0.026-0.338,0.031
		L100.576,252.318z"/>
	<polygon style="fill:#018bc8;" points="100.943,202.198 128.572,202.198 155.76,202.559 155.396,222.066 128.572,222.066 100.576,221.693 	"/>
	<polygon style="fill:#018bc8;" points="100.943,319.291 100.571,313.553 100.943,294.05 128.765,294.05 155.76,294.409 155.396,313.915 128.577,313.915 
		128.561,313.915 100.943,313.915 	"/>
	<path style="fill:#018bc8;" d="M160.545,369.496c-14.669,0-26.598-11.938-26.598-26.604l0.005-18.226h21.443c6.134,0,11.116-4.981,11.116-11.107v-19.139
		c0-0.945-0.154-1.849-0.375-2.72c-0.066-0.252-0.152-0.493-0.231-0.74c-0.216-0.641-0.48-1.243-0.801-1.833
		c-0.076-0.141-0.107-0.304-0.194-0.451c0.069-0.109,0.098-0.241,0.16-0.361c0.349-0.631,0.635-1.286,0.855-1.974
		c0.077-0.227,0.145-0.447,0.205-0.678c0.226-0.888,0.375-1.79,0.375-2.725l-0.005-19.134c0-0.945-0.155-1.849-0.375-2.719
		c-0.066-0.252-0.147-0.483-0.226-0.735c-0.215-0.651-0.48-1.26-0.806-1.854c-0.076-0.131-0.108-0.299-0.184-0.424
		c0.082-0.127,0.108-0.28,0.176-0.416c0.339-0.614,0.619-1.254,0.835-1.927c0.082-0.241,0.154-0.472,0.221-0.714
		c0.215-0.87,0.365-1.764,0.359-2.688l0.005-19.14c0-0.945-0.155-1.847-0.375-2.719c-0.066-0.252-0.152-0.493-0.231-0.745
		c-0.215-0.651-0.486-1.26-0.806-1.854c-0.076-0.13-0.108-0.293-0.188-0.429c0.081-0.132,0.113-0.288,0.188-0.426
		c0.32-0.587,0.591-1.202,0.801-1.852c0.079-0.247,0.165-0.483,0.231-0.74c0.22-0.878,0.375-1.776,0.375-2.721l0.005-19.135
		c0-0.745-0.082-1.475-0.221-2.177c-0.047-0.243-0.139-0.462-0.205-0.693c-0.124-0.462-0.236-0.914-0.417-1.345
		c-0.113-0.268-0.26-0.509-0.388-0.766c-0.189-0.367-0.365-0.746-0.591-1.092c-0.167-0.252-0.365-0.478-0.553-0.714
		c-0.195-0.252-0.365-0.524-0.581-0.756c0.299-0.074,0.575-0.221,0.869-0.311c0.087-0.026,0.173-0.062,0.255-0.089
		c0.575-0.194,1.139-0.395,1.677-0.678c0.687-0.351,1.344-0.771,1.949-1.28l18.852-15.917v166.138
		C187.152,357.553,175.22,369.496,160.545,369.496z"/>
	<path style="fill:#018bc8;" d="M235.818,313.538c0,0.21-0.156,0.366-0.361,0.366l-29.104-0.366V172.99c0-1.58-0.696-3.084-1.904-4.105l-8.447-7.129
		c-0.005-0.005-0.426-0.354-0.436-0.359c-0.504-0.419-1.055-0.727-1.637-0.937c-0.263-0.095-0.553-0.089-0.82-0.14
		c-0.325-0.058-0.649-0.165-0.986-0.165l0,0c-0.463,0-0.912,0.118-1.354,0.236c-0.158,0.042-0.314,0.026-0.463,0.079
		c-0.587,0.215-1.149,0.527-1.648,0.952l-27.795,22.995l-12.305-15.131l41.948-35.186c0.977,0.307,1.659,0.409,2.646,0.144
		c0.135-0.021,0.797-0.058,0.938-0.095l41.696,35.47c-0.141,0.748-0.136,1.491,0.031,2.231V313.538z"/>
	<path style="fill:#018bc8;" d="M278.911,313.553c0,0.163-0.179,0.351-0.34,0.351l-21.43-0.355l0.358-111.351l21.417,0.361L278.911,313.553z"/>
</g>
<g>
</g>
<g>
</g>
<g>
</g>
<g>
</g>
<g>
</g>
<g>
</g>
<g>
</g>
<g>
</g>
<g>
</g>
<g>
</g>
<g>
</g>
<g>
</g>
<g>
</g>
<g>
</g>
<g>
</g>
</svg>
