<?xml version="1.0" encoding="iso-8859-1"?>
<!-- Generator: Adobe Illustrator 18.1.1, SVG Export Plug-In . SVG Version: 6.00 Build 0)  -->
<svg version="1.1" id="Capa_1" xmlns="http://www.w3.org/2000/svg" xmlns:xlink="http://www.w3.org/1999/xlink" x="0px" y="0px"
	 viewBox="0 0 22.782 22.782" style="enable-background:new 0 0 22.782 22.782;" xml:space="preserve">
<g>
	<path style="fill:#018bc8;" d="M20.748,6.931c0.114-0.538-0.035-1.12-0.452-1.537l-1.882-1.882
		c-0.576-0.574-1.461-0.646-2.112-0.216h-2.178c0.097-0.425,0.259-1.154,0.272-1.219c0.005-0.021,0.007-0.044,0.006-0.066
		c-0.006-0.136-0.159-0.243-0.294-0.243c-0.254,0-1.664,0.005-3.011,0.01c-2.872,0.01-2.872,0.01-2.883,0.253
		C8.213,2.052,8.215,2.074,8.219,2.096L8.265,2.31C8.36,2.774,8.427,3.088,8.471,3.294H6.793C6.224,2.92,5.478,2.93,4.916,3.318
		C4.915,3.319,4.913,3.319,4.912,3.32c-0.067,0.047-0.645,0.457-1.38,1.34L2.798,5.393C2.515,5.677,2.362,6.036,2.323,6.405
		C1.141,8.451,0,11.633,0,16.306c0,0.141,0.114,0.254,0.254,0.254h2.721c0.14,0,0.254-0.113,0.254-0.254
		c0-3.866,0.874-6.433,1.724-8.013L6.07,13.47l-0.178,4.392c-0.002,0.042,0.007,0.086,0.026,0.124l0.951,1.889
		c0.021,0.039,0.05,0.072,0.085,0.097c0.064,0.043,1.59,1.042,4.188,1.042c1.516,0,3.085-0.343,4.667-1.02
		c0.055-0.023,0.1-0.065,0.127-0.119l0.956-1.921c0.019-0.038,0.027-0.08,0.026-0.123l-0.166-4.536l1.097-4.962
		c0.839,1.578,1.702,4.135,1.702,7.974c0,0.141,0.114,0.254,0.255,0.254h2.722c0.141,0,0.254-0.113,0.254-0.254
		C22.783,12.014,21.822,8.982,20.748,6.931z M2.723,16.051H0.511c0.036-4.022,0.931-6.874,1.93-8.815
		c0.082,0.194,0.2,0.376,0.358,0.535c0.442,0.443,1.069,0.58,1.632,0.425C3.594,9.807,2.759,12.335,2.723,16.051z M17.495,7.579
		l-1.245,5.638c-0.004,0.021-0.007,0.043-0.006,0.064l0.165,4.503l-0.885,1.778c-1.488,0.625-2.961,0.941-4.38,0.941
		c-2.173,0-3.566-0.754-3.852-0.923l-0.889-1.766l0.177-4.356c0.001-0.021-0.001-0.043-0.005-0.064L5.328,7.619l1.73-1.73
		C7.624,5.323,7.7,4.453,7.288,3.804h1.5c0.079,0,0.149-0.048,0.198-0.111s0.061-0.156,0.041-0.232
		c-0.02-0.073-0.171-0.8-0.247-1.166c0.975-0.005,4.002-0.016,5.051-0.018c-0.094,0.422-0.253,1.127-0.271,1.197
		c-0.024,0.077-0.009,0.161,0.039,0.226c0.048,0.065,0.123,0.104,0.204,0.104h2.002c-0.411,0.649-0.336,1.519,0.23,2.085
		l1.553,1.551C17.543,7.475,17.508,7.521,17.495,7.579z M20.06,16.051c-0.038-3.851-0.936-6.427-1.797-8.023
		c0.643,0.376,1.48,0.294,2.033-0.257c0.074-0.074,0.137-0.155,0.194-0.239c0.938,1.931,1.748,4.696,1.783,8.52L20.06,16.051
		L20.06,16.051z"/>
</g>
<g>
</g>
<g>
</g>
<g>
</g>
<g>
</g>
<g>
</g>
<g>
</g>
<g>
</g>
<g>
</g>
<g>
</g>
<g>
</g>
<g>
</g>
<g>
</g>
<g>
</g>
<g>
</g>
<g>
</g>
</svg>
